HIERARCHY
ROOT Hips
{
	OFFSET -0.001795 -0.223333 0.028219
	CHANNELS 6 Xposition Yposition Zposition Zrotation Yrotation Xrotation 
	JOINT LeftUpLeg
	{
		OFFSET 0.069520 -0.091406 -0.006815
		CHANNELS 3 Zrotation Yrotation Xrotation
		JOINT LeftLeg
		{
			OFFSET 0.034277 -0.375199 -0.004496
			CHANNELS 3 Zrotation Yrotation Xrotation
			JOINT LeftFoot
			{
				OFFSET -0.013596 -0.397961 -0.043693
				CHANNELS 3 Zrotation Yrotation Xrotation
				JOINT LeftToe
				{
					OFFSET 0.026358 -0.055791 0.119288
					CHANNELS 3 Zrotation Yrotation Xrotation
					End Site
					{
						OFFSET 0.000000 0.000000 0.000000
					}
				}
			}
		}
	}
	JOINT RightUpLeg
	{
		OFFSET -0.067670 -0.090522 -0.004320
		CHANNELS 3 Zrotation Yrotation Xrotation
		JOINT RightLeg
		{
			OFFSET -0.038290 -0.382569 -0.008850
			CHANNELS 3 Zrotation Yrotation Xrotation
			JOINT RightFoot
			{
				OFFSET 0.015774 -0.398415 -0.042312
				CHANNELS 3 Zrotation Yrotation Xrotation
				JOINT RightToe
				{
					OFFSET -0.025372 -0.048144 0.123348
					CHANNELS 3 Zrotation Yrotation Xrotation
					End Site
					{
						OFFSET 0.000000 0.000000 0.000000
					}
				}
			}
		}
	}
	JOINT Spine
	{
		OFFSET -0.002533 0.108963 -0.026696
		CHANNELS 3 Zrotation Yrotation Xrotation
		JOINT Spine1
		{
			OFFSET 0.005487 0.135180 0.001092
			CHANNELS 3 Zrotation Yrotation Xrotation
			JOINT Spine2
			{
				OFFSET 0.001457 0.052922 0.025425
				CHANNELS 3 Zrotation Yrotation Xrotation
				JOINT Neck
				{
					OFFSET -0.002778 0.213870 -0.042857
					CHANNELS 3 Zrotation Yrotation Xrotation
					JOINT Head
					{
						OFFSET 0.005152 0.064970 0.051349
						CHANNELS 3 Zrotation Yrotation Xrotation
						End Site
						{
							OFFSET 0.000000 0.000000 0.000000
						}
					}
				}
				JOINT LeftShoulder
				{
					OFFSET 0.078845 0.121749 -0.034090
					CHANNELS 3 Zrotation Yrotation Xrotation
					JOINT LeftArm
					{
						OFFSET 0.090977 0.030469 -0.008868
						CHANNELS 3 Zrotation Yrotation Xrotation
						JOINT LeftForeArm
						{
							OFFSET 0.259612 -0.012772 -0.027456
							CHANNELS 3 Zrotation Yrotation Xrotation
							JOINT LeftHand
							{
								OFFSET 0.249234 0.008986 -0.001171
								CHANNELS 3 Zrotation Yrotation Xrotation
								End Site
								{
									OFFSET 0.000000 0.000000 0.000000
								}
							}
						}
					}
				}
				JOINT RightShoulder
				{
					OFFSET -0.081759 0.118833 -0.038615
					CHANNELS 3 Zrotation Yrotation Xrotation
					JOINT RightArm
					{
						OFFSET -0.096012 0.032551 -0.009143
						CHANNELS 3 Zrotation Yrotation Xrotation
						JOINT RightForeArm
						{
							OFFSET -0.253742 -0.013329 -0.021401
							CHANNELS 3 Zrotation Yrotation Xrotation
							JOINT RightHand
							{
								OFFSET -0.255298 0.007772 -0.005559
								CHANNELS 3 Zrotation Yrotation Xrotation
								End Site
								{
									OFFSET 0.000000 0.000000 0.000000
								}
							}
						}
					}
				}
			}
		}
	}
}
MOTION
Frames: 17
Frame Time: 0.050000
-1.014007 0.866389 -0.220288 -1.670750 -72.402767 12.947839 13.851934 15.852669 -34.168764 4.386536 5.126479 31.706324 -3.470304 -4.966023 0.947207 0.000000 0.000000 0.000000 -28.782055 9.031296 -36.694941 30.492129 2.242203 29.851879 -26.776667 -44.573450 27.108771 0.000000 0.000000 0.000000 13.431023 11.640347 57.028042 6.152465 0.286630 -33.815602 -4.749355 -16.699672 21.645390 -5.355268 -0.254536 -45.564030 0.000000 0.000000 0.000000 -32.652896 -15.072008 25.860408 -18.916257 -34.479289 -2.056847 -20.916152 -54.784550 13.291204 0.000000 0.000000 0.000000 10.489038 36.628299 5.856797 41.195294 25.496296 4.384961 11.831544 37.369184 1.065602 0.000000 0.000000 0.000000 
-1.027062 0.866060 -0.256672 1.733338 -72.403968 9.937352 14.940752 16.381484 -33.601811 4.883338 4.199504 29.672941 -3.587224 -4.978341 6.508895 0.000000 0.000000 0.000000 -29.359951 9.167050 -37.266952 32.175923 2.139320 30.171815 -26.711874 -45.034344 26.650476 0.000000 0.000000 0.000000 14.270069 10.737230 55.763222 5.639764 0.459300 -34.087286 -4.967307 -16.994885 21.805091 -7.257568 0.217149 -44.930879 0.000000 0.000000 0.000000 -32.298049 -14.951500 26.076186 -20.982269 -34.665841 -1.858193 -19.319573 -53.493201 12.213589 0.000000 0.000000 0.000000 10.999244 35.935516 5.125694 41.303542 22.875686 3.888390 10.422758 35.376349 0.653970 0.000000 0.000000 0.000000 
-1.040119 0.869352 -0.293400 5.552724 -72.069267 5.827547 16.035095 15.974364 -31.690574 4.462700 3.519320 26.678397 -3.615382 -4.831349 11.128959 0.000000 0.000000 0.000000 -28.857700 8.995309 -36.936159 32.418286 2.154981 31.016009 -26.249738 -45.054488 24.802323 0.000000 0.000000 0.000000 15.496546 9.658852 54.674458 5.775125 0.334073 -33.583294 -5.285858 -16.490872 21.609706 -8.684643 0.717601 -44.388647 0.000000 0.000000 0.000000 -32.454426 -15.541901 26.399086 -23.334849 -34.265794 -1.641624 -15.627087 -51.173002 9.670999 0.000000 0.000000 0.000000 11.982393 34.902225 4.397149 40.637025 20.374771 3.522522 10.077755 33.869521 0.656433 0.000000 0.000000 0.000000 
-1.052623 0.874920 -0.328517 11.018314 -72.808309 0.480993 16.839426 15.682534 -29.745813 4.461765 2.926029 23.972229 -3.655094 -4.633246 16.732276 0.000000 0.000000 0.000000 -27.901087 9.030519 -36.932791 31.143819 2.503867 31.237749 -24.232468 -43.967429 20.441328 0.000000 0.000000 0.000000 15.911491 9.263764 53.262806 4.036869 0.512462 -33.507191 -4.947898 -16.257767 22.469148 -9.888215 0.991715 -43.843176 0.000000 0.000000 0.000000 -30.296325 -15.951640 25.901354 -28.034292 -34.338001 -0.807852 -13.193730 -48.945397 8.399893 0.000000 0.000000 0.000000 12.524121 33.862140 3.302978 41.575889 18.309918 3.210844 9.667842 32.024917 0.458240 0.000000 0.000000 0.000000 
-1.064358 0.881906 -0.360127 15.065132 -73.599562 -3.844668 17.257427 14.875144 -27.380134 5.251372 2.498768 22.634887 -5.226624 -6.204822 18.858972 0.000000 0.000000 0.000000 -26.110026 8.807326 -35.856885 29.000932 2.981714 30.796641 -22.678206 -42.237430 17.157534 0.000000 0.000000 0.000000 16.172804 8.960984 51.974803 3.990920 0.516329 -33.266163 -4.714710 -15.301519 22.474323 -9.923312 0.893020 -42.918248 0.000000 0.000000 0.000000 -30.148651 -15.741500 25.757110 -31.116902 -34.478075 -0.400278 -10.053367 -46.788422 6.653992 0.000000 0.000000 0.000000 14.604330 33.736273 2.404208 40.511199 15.828050 3.076466 8.855677 29.933978 0.442853 0.000000 0.000000 0.000000 
-1.075109 0.886677 -0.387276 21.669814 -73.748770 -9.867074 16.319181 13.748825 -26.482341 5.079777 2.435180 21.661973 -5.758974 -6.705076 20.068915 0.000000 0.000000 0.000000 -26.559359 8.900851 -35.935300 28.559588 3.041242 29.967413 -21.950382 -41.606381 15.201543 0.000000 0.000000 0.000000 15.656762 8.564568 50.036279 3.676891 0.418317 -32.595575 -3.519421 -13.909189 21.831621 -10.514193 1.153877 -41.403116 0.000000 0.000000 0.000000 -28.195173 -15.296183 24.325162 -35.390468 -35.438033 0.933559 -10.304677 -43.570867 6.499538 0.000000 0.000000 0.000000 13.636023 31.818052 1.758256 41.239838 15.823650 2.918445 9.128826 28.428448 0.465130 0.000000 0.000000 0.000000 
-1.084846 0.889653 -0.409637 27.489834 -75.217210 -15.548329 16.158856 13.986365 -26.272769 5.786227 2.734797 22.917641 -6.113646 -6.708105 22.963610 0.000000 0.000000 0.000000 -25.862174 9.199041 -36.569127 27.401962 3.408049 30.292172 -22.072204 -41.624890 15.495501 0.000000 0.000000 0.000000 15.115506 8.425868 47.921352 4.521252 0.443682 -32.151705 -3.293120 -12.247923 22.269141 -12.287353 1.885507 -42.042444 0.000000 0.000000 0.000000 -28.935515 -13.459075 23.933169 -36.286198 -36.292312 0.940128 -11.175520 -42.586691 6.852742 0.000000 0.000000 0.000000 13.847119 31.968455 1.492263 40.412768 15.350331 2.840384 11.284334 26.519779 0.985386 0.000000 0.000000 0.000000 
-1.093710 0.890829 -0.427701 33.014093 -75.447206 -20.272523 14.706897 13.346753 -26.933464 6.484876 3.640114 26.222145 -4.820616 -5.793100 20.351245 0.000000 0.000000 0.000000 -26.828037 9.641859 -38.102767 27.487639 3.373328 30.834496 -22.086561 -42.247618 15.937832 0.000000 0.000000 0.000000 15.611899 7.712170 46.019688 2.550534 0.630188 -32.084543 -1.375103 -12.618936 21.399027 -14.217483 2.636251 -41.886944 0.000000 0.000000 0.000000 -27.754070 -13.152091 23.743422 -38.475788 -37.717177 2.092998 -11.234722 -40.832159 6.707122 0.000000 0.000000 0.000000 12.994053 30.810514 0.581994 41.382371 13.665662 2.503651 16.041241 26.709064 1.523008 0.000000 0.000000 0.000000 
-1.101469 0.891983 -0.441579 36.153865 -75.626773 -23.896218 13.406625 12.752000 -27.280257 8.090777 4.761738 30.610383 -7.220686 -8.339288 18.046217 0.000000 0.000000 0.000000 -26.393245 9.877117 -38.829297 27.921143 3.578485 32.426000 -21.977397 -42.209104 17.305713 0.000000 0.000000 0.000000 18.182162 7.404350 46.385933 1.552307 0.902337 -32.460211 -2.522578 -14.144326 21.815622 -13.276517 1.947573 -41.006395 0.000000 0.000000 0.000000 -28.102635 -13.073120 24.435353 -36.183160 -40.275307 2.261248 -11.837682 -40.439563 6.669620 0.000000 0.000000 0.000000 14.350289 30.504903 -0.707824 40.452541 12.740925 2.676037 19.892999 25.681474 2.032971 0.000000 0.000000 0.000000 
-1.107788 0.894100 -0.451669 43.099516 -76.405370 -30.912685 11.972910 11.735312 -26.790859 8.747875 6.097013 33.584568 -8.116655 -9.735620 14.221786 0.000000 0.000000 0.000000 -25.049690 10.022503 -39.037260 26.225089 4.053464 33.407519 -21.017379 -41.140165 14.731331 0.000000 0.000000 0.000000 18.761860 7.749097 46.794989 1.805127 0.831378 -32.192842 -2.704535 -14.833503 21.596021 -14.264925 2.316138 -41.213712 0.000000 0.000000 0.000000 -28.760772 -13.284456 25.367600 -34.153578 -42.057984 2.109169 -11.349396 -40.266523 6.285022 0.000000 0.000000 0.000000 13.825572 31.275285 -0.594615 40.033468 12.915965 2.802283 23.069126 25.849588 2.330941 0.000000 0.000000 0.000000 
-1.112453 0.895386 -0.457901 48.715764 -77.278742 -37.028378 9.641451 10.370476 -26.709828 8.732943 7.603120 35.635003 -7.967387 -9.934755 11.181005 0.000000 0.000000 0.000000 -23.666686 10.179939 -38.961072 25.841844 4.595080 34.488343 -19.960726 -39.810072 12.768433 0.000000 0.000000 0.000000 20.136591 8.585347 48.818749 1.513424 0.767185 -31.727378 -3.181458 -17.174051 21.342219 -13.143089 1.510928 -41.120504 0.000000 0.000000 0.000000 -26.026929 -14.723214 24.984982 -35.599652 -43.674867 3.918884 -10.071936 -41.043576 5.937967 0.000000 0.000000 0.000000 12.173137 32.347557 -0.071503 40.555502 14.270812 2.996935 25.144699 27.221582 2.409200 0.000000 0.000000 0.000000 
-1.115660 0.895280 -0.460410 50.640745 -77.396715 -39.104308 7.750590 9.714825 -27.732256 10.372525 8.098766 38.058419 -11.863808 -14.039170 12.021911 0.000000 0.000000 0.000000 -23.011016 10.289880 -39.195270 25.940835 4.866176 35.764615 -19.306890 -39.225273 10.021368 0.000000 0.000000 0.000000 22.308474 8.533198 49.874081 1.515026 0.720075 -31.538346 -4.633761 -18.419993 21.472206 -12.038188 0.875601 -40.995591 0.000000 0.000000 0.000000 -26.043894 -16.465314 25.993066 -33.004434 -44.543785 3.623374 -11.357927 -43.428529 6.576398 0.000000 0.000000 0.000000 12.163883 31.453216 -0.477721 40.522056 16.175596 3.338299 27.126078 27.953721 2.754421 0.000000 0.000000 0.000000 
-1.117328 0.894949 -0.459695 51.488530 -77.584880 -40.067056 6.671719 9.312449 -28.157794 10.675276 8.322557 38.583211 -11.248678 -13.607750 11.456478 0.000000 0.000000 0.000000 -22.684548 10.358449 -39.260753 26.715831 4.998766 36.562689 -18.427034 -38.178186 9.349635 0.000000 0.000000 0.000000 23.994057 8.755546 51.601145 1.560281 0.705213 -31.683200 -5.350993 -20.460096 21.680786 -12.150891 0.845306 -41.081597 0.000000 0.000000 0.000000 -24.899140 -17.866868 26.155519 -32.222872 -44.707758 3.897746 -12.815481 -46.913743 7.876387 0.000000 0.000000 0.000000 11.188161 31.619457 -0.177643 39.275813 16.539431 3.270699 29.096619 29.606663 3.045055 0.000000 0.000000 0.000000 
-1.117995 0.892438 -0.456949 56.250785 -77.951115 -44.527982 5.240198 9.557826 -29.976065 10.827139 8.504885 39.068275 -12.000000 -13.950335 13.664007 0.000000 0.000000 0.000000 -24.515788 10.887086 -40.390479 28.469747 4.820743 36.456529 -19.295107 -39.569023 11.569697 0.000000 0.000000 0.000000 25.150796 8.998829 52.438090 1.690281 0.450314 -30.664494 -5.974313 -21.072882 21.294507 -11.761807 0.616271 -40.659048 0.000000 0.000000 0.000000 -24.459569 -18.804817 26.429905 -32.115146 -45.636112 4.341588 -13.583513 -46.029510 7.912851 0.000000 0.000000 0.000000 9.214695 30.713743 0.258027 39.649974 19.699295 3.558338 28.857534 29.904768 2.821025 0.000000 0.000000 0.000000 
-1.117694 0.889395 -0.453584 61.155219 -78.068157 -48.690388 5.470300 10.808515 -31.547408 10.276558 9.043124 39.831528 -11.006840 -12.664020 14.403210 0.000000 0.000000 0.000000 -26.875997 11.791061 -42.849147 30.019615 4.584397 37.205029 -20.795773 -42.104061 15.107409 0.000000 0.000000 0.000000 27.462902 9.205327 54.225962 0.610842 0.885718 -32.186729 -8.388089 -22.196044 22.820289 -11.911095 0.691011 -43.297637 0.000000 0.000000 0.000000 -24.309935 -20.367342 27.244498 -33.310253 -46.089333 4.874653 -10.960182 -46.685809 6.754653 0.000000 0.000000 0.000000 8.246438 29.740176 0.173799 39.750376 21.544640 3.707736 28.409845 29.894865 2.592817 0.000000 0.000000 0.000000 
-1.116796 0.886941 -0.450648 58.578000 -77.414239 -46.410760 4.718750 10.705748 -32.621484 10.936816 8.490761 40.204515 -10.965692 -13.095586 12.235821 0.000000 0.000000 0.000000 -28.088314 11.641546 -42.917882 30.851265 4.168475 36.689886 -21.922517 -43.451480 16.848943 0.000000 0.000000 0.000000 30.190236 8.638247 55.260370 0.642185 0.528672 -30.132461 -9.660951 -24.884464 21.701759 -11.337405 0.363929 -43.330233 0.000000 0.000000 0.000000 -22.407011 -19.651008 25.550355 -36.352308 -47.546298 7.087632 -11.490729 -47.603260 7.547024 0.000000 0.000000 0.000000 6.916645 31.111606 0.951911 39.558858 22.496999 3.915061 25.432833 29.966692 1.982240 0.000000 0.000000 0.000000 
-1.115983 0.885005 -0.448305 62.374041 -78.278079 -48.765999 3.629808 11.475318 -34.850238 10.193681 7.195805 37.067561 -9.992512 -12.223109 10.287595 0.000000 0.000000 0.000000 -28.278308 12.271822 -44.563452 30.605780 4.207446 35.871218 -21.518872 -43.805782 15.744981 0.000000 0.000000 0.000000 32.122312 8.750225 56.812678 -1.347414 1.027826 -31.417321 -10.060906 -25.169962 22.923062 -12.676849 0.933579 -43.398390 0.000000 0.000000 0.000000 -22.767233 -21.416922 26.717040 -36.148424 -49.855627 7.885487 -8.853162 -45.482848 5.564734 0.000000 0.000000 0.000000 4.850324 30.137791 1.666443 40.293325 25.713356 3.865183 21.902734 28.078829 1.421898 0.000000 0.000000 0.000000 
